<svg width="32" height="29" viewBox="0 0 32 29" fill="none" xmlns="http://www.w3.org/2000/svg">
<path d="M28.7677 3.24627H23.7037L20.7946 0H11.2054L8.29629 3.24627H3.23232C1.50842 3.24627 0 4.65299 0 6.49254V25.7537C0 27.4851 1.40067 29 3.23232 29H28.7677C30.4916 29 32 27.5933 32 25.7537V6.38433C32 4.65299 30.5993 3.24627 28.7677 3.24627ZM28.7677 25.6455H3.34007V6.38433H9.80471L12.7138 3.13806H19.5017L22.303 6.38433H28.7677V25.6455ZM16.0539 8.00746C11.6364 8.00746 8.08081 11.5784 8.08081 16.0149C8.08081 20.4515 11.6364 24.0224 16.0539 24.0224C20.4714 24.0224 24.0269 20.4515 24.0269 16.0149C24.0269 11.5784 20.4714 8.00746 16.0539 8.00746ZM16.0539 20.8843C13.468 20.8843 11.3131 18.7201 11.3131 16.1231C11.3131 13.5261 13.468 11.3619 16.0539 11.3619C18.6397 11.3619 20.7946 13.5261 20.7946 16.1231C20.7946 18.7201 18.6397 20.8843 16.0539 20.8843Z" fill="#911C1C"/>
</svg>
